<?xml version="1.0" encoding="utf-8"?>
<!-- Generator: Adobe Illustrator 25.2.1, SVG Export Plug-In . SVG Version: 6.00 Build 0)  -->
<svg version="1.1" id="Layer_1" xmlns="http://www.w3.org/2000/svg" xmlns:xlink="http://www.w3.org/1999/xlink" x="0px" y="0px"
	 viewBox="0 0 2048 1365" style="enable-background:new 0 0 2048 1365;" xml:space="preserve">
<style type="text/css">
	.st0{fill:#040404;}
	.st1{fill:#339D62;}
	.st2{fill:#81CDA2;}
</style>
<g>
	<path class="st0" d="M542.12,1091.38c0,15.11,0,30.76,0,46.41c0,1.83,0.06,3.67-0.02,5.5c-0.27,6.88-4.31,11.24-10.25,11.08
		c-5.7-0.15-9.62-4.5-9.67-11.13c-0.12-15.67-0.12-31.33-0.16-47c-0.01-1.81,0-3.62,0-5.78c-9.08-0.44-17.84-0.77-26.6-1.3
		c-46.29-2.77-91.58-10.64-135.1-27.1c-39.97-15.12-75.83-36.56-103.98-69.38c-28.31-33.01-42.61-71.7-46.21-114.74
		c-3.67-43.75,5.64-85.44,19.5-126.44c19.74-58.36,46.62-113.51,76.05-167.46c46.55-85.33,98.68-167.12,156.87-244.98
		c14.84-19.85,31.25-38.53,47.1-57.61c2.85-3.43,6.33-6.4,9.79-9.25c9.85-8.12,15.83-7.43,23.88,2.41
		c43.14,52.76,84.2,107.1,123.22,162.98c41.86,59.95,81.4,121.38,115.67,186.05c24.9,46.98,47.01,95.13,61.13,146.63
		c15.73,57.35,14.24,114.13-6.88,169.77c-20.88,55-60.85,91.98-113.68,116.01c-33.94,15.44-69.71,24.42-106.57,28.82
		C591.78,1087.79,567.18,1089.23,542.12,1091.38z M521.88,1070.91c0-10.32,0.21-19.3-0.1-28.25c-0.13-3.72-0.81-7.64-2.22-11.07
		c-6.52-15.84-15.8-30.05-27-42.97c-30.91-35.64-70.53-55.99-116.11-65.73c-23.08-4.94-46.47-6.55-70.04-6.28
		c-7.3,0.08-11.71-4.04-11.6-10.19c0.1-5.91,4.37-9.48,11.6-9.63c27.44-0.57,54.6,1.74,81.31,8.22
		c54.37,13.2,99.62,40.4,132.34,86.69c0.31,0.44,0.86,0.7,1.7,1.36c0-98.28,0-195.88,0-293.65c-1.21-1.1-2.41-2.25-3.68-3.31
		c-20.53-17.19-43.62-29.86-68.68-39.09c-21.02-7.74-42.75-12.59-64.85-15.94c-6.91-1.05-10.65-5.45-9.83-11.35
		c0.85-6.09,5.96-9.32,13.05-8.23c3.29,0.5,6.59,0.98,9.87,1.54c40.48,6.93,78.72,19.78,113.12,42.77c3.53,2.36,7,4.79,10.79,7.39
		c0-125.28,0-249.91,0-375.33c-1.68,1.78-2.87,2.9-3.89,4.17c-12.56,15.55-25.57,30.76-37.54,46.74
		c-55.78,74.51-105.95,152.67-151.04,234.07c-31.74,57.29-60.84,115.84-81.6,178.17c-12.14,36.42-20.28,73.47-17.65,112.28
		c3.23,47.57,20.77,88.43,55.84,121.24c22.58,21.12,49,36.03,77.6,47.31c33.69,13.29,68.75,20.99,104.64,24.92
		C485.58,1068.7,503.39,1069.53,521.88,1070.91z M541.92,909.42c25.95-36.36,58.98-61.06,98.93-76.61
		c36.99-14.4,75.57-19.5,115.06-18.79c7.16,0.13,11.9,4.18,11.85,10.04c-0.05,5.86-4.79,9.61-12.01,9.89
		c-13.63,0.53-27.3,0.74-40.88,1.95c-34.08,3.04-66.38,12.29-96.07,29.61c-31.85,18.58-56.71,43.93-73.24,77.14
		c-2.49,4.99-3.79,10.04-3.76,15.77c0.21,35.33,0.11,70.65,0.11,105.98c0,1.77,0,3.54,0,5.7c2.64,0,4.61,0.03,6.57,0
		c28.84-0.53,57.5-2.95,85.89-8.12c36.76-6.69,72.08-17.51,104.41-36.81c32.14-19.19,57.61-44.83,73.26-79.03
		c24.8-54.22,27.7-110.39,12.74-167.77c-10.42-39.98-26.38-77.84-44.57-114.79c-36.72-74.6-80.95-144.72-128.84-212.52
		c-28.14-39.84-57.74-78.64-86.82-117.81c-6.99-9.41-14.52-18.42-22.16-28.06c0,92.4,0,183.98,0,275.42
		c10.41-6.28,20.27-12.84,30.67-18.4c32.24-17.22,66.98-26.66,102.99-31.8c5.73-0.82,10.95,3.02,11.77,8.36
		c0.85,5.48-2.73,10.12-8.79,11.28c-10.45,2-21,3.59-31.36,5.98c-37.46,8.67-72.08,23.45-102.01,48.19
		c-2.95,2.44-3.82,4.88-3.82,8.49c0.08,96.98,0.07,193.96,0.07,290.95C541.92,905.1,541.92,906.54,541.92,909.42z"/>
	<path class="st0" d="M210.33,159.96c7.77,0,15.07,0,23.28,0c-2.27,8.12-4.18,15.96-6.66,23.61c-5.41,16.69-11.75,32.96-23.68,46.33
		c-8.28,9.29-18.35,14.37-31.1,14.43c-17.67,0.09-34.81,3.24-50.67,11.48c-27.36,14.21-39.85,38.11-43.39,67.58
		c-0.91,7.58-1.1,15.29-1.1,22.94c-0.05,249.82,0.02,499.65-0.16,749.47c-0.01,20.92,0.56,41.63,6.49,61.85
		c15.15,51.72,49.75,82.17,102.28,92.15c13.5,2.57,27.45,3.9,41.2,3.92c199.49,0.25,398.99,0.18,598.48,0.17
		c24.68,0,48.91-2.97,71.95-12.31c41.88-16.99,65.44-49.19,75.6-92.22c3.46-14.66,4.91-29.55,4.38-44.63
		c-0.15-4.16-0.1-8.33-0.1-12.5c0-249.49-0.01-498.98,0.02-748.47c0-19.39-2.36-38.3-11.6-55.66
		c-12.39-23.26-32.77-35.72-57.92-40.92c-7.95-1.65-16.19-2.87-24.27-2.74c-16.13,0.25-27.64-7.24-36.7-19.6
		c-12.14-16.56-18.26-35.73-23.61-55.21c-0.83-3.03-1.52-6.1-2.36-9.53c7.77,0,15.18,0,22.95,0c2.12,6.93,3.7,14.28,6.6,21.07
		c4.42,10.35,9.29,20.58,14.87,30.35c4.09,7.15,10.74,10.45,19.61,10.46c21.27,0.02,41.67,4.61,60.45,14.93
		c31.51,17.32,47.59,45.08,52.67,79.8c1.37,9.36,1.87,18.92,1.88,28.39c0.1,250.49-0.02,500.98,0.22,751.47
		c0.03,26.04-1.69,51.61-10.34,76.3c-18.68,53.35-56.32,85.4-111.01,98.05c-17.95,4.15-36.19,5.52-54.57,5.52
		c-198.83-0.02-397.65-0.03-596.48-0.05c-28.07,0-55.51-3.79-81.52-14.85c-46.17-19.64-73.39-55.28-85.8-103.06
		c-4.12-15.86-6.09-32.04-6.09-48.45c0.06-230.16,0.09-460.31,0.18-690.47c0.01-30.16-0.41-60.35,0.75-90.47
		c1.12-29.16,10.63-55.48,32.19-76.32c18.34-17.73,40.89-26.36,65.74-29.68c5.76-0.77,11.63-1.31,17.43-1.17
		c7.38,0.18,12.77-2.86,17.2-8.38c9.15-11.4,13.98-24.85,18.38-38.5C207.54,170.14,208.83,165.15,210.33,159.96z"/>
	<path class="st1" d="M1825.63,963.9c-16.25,0-32.21,0-48.62,0c-16.26-22.72-32.69-45.67-50.07-69.93c0,24.12,0,46.72,0,69.72
		c-19.69,0-38.74,0-58.21,0c0-61.26,0-122.61,0-184.33c15.93,0,31.84,0,48.56,0c16.28,22.72,32.92,45.94,50.48,70.45
		c0-24.37,0-47.28,0-70.49c19.6,0,38.52,0,57.86,0C1825.63,840.63,1825.63,901.99,1825.63,963.9z M1792.94,801.52
		c0,42.42,0,84.27,0,126.13c-0.33,0.11-0.66,0.23-0.99,0.34c-30.24-42.3-60.48-84.61-90.41-126.47c-2.75,0-4.71,0-6.92,0
		c0,46.8,0,93.36,0,140.01c2.41,0,4.47,0,7.29,0c0-42.12,0-83.88,0-125.63c0.35-0.06,0.69-0.12,1.04-0.18
		c30.08,42.09,60.15,84.17,89.89,125.78c2.78,0,4.85,0,6.82,0c0-46.91,0-93.46,0-139.99
		C1797.42,801.52,1795.62,801.52,1792.94,801.52z"/>
	<path class="st0" d="M1187.98,296.01c19.47,0,38.74,0,58.58,0c0,20.73,0,41.44,0,62.41c11.16,0,21.76,0,32.92,0
		c0-20.7,0-41.4,0-62.37c19.98,0,39.41,0,59.2,0c0,61.26,0,122.63,0,184.37c-19.39,0-38.92,0-58.98,0c0-22.69,0-45.26,0-68.03
		c-11.1,0-21.69,0-32.81,0c0,22.64,0,45.19,0,68.06c-19.9,0-39.27,0-58.91,0C1187.98,419.08,1187.98,357.83,1187.98,296.01z
		 M1222.57,381.47c0-21.19,0-42.23,0-63.3c-2.68,0-4.78,0-7.03,0c0,46.8,0,93.35,0,139.93c2.47,0,4.67,0,7.3,0
		c0-23.51,0-46.59,0-69.73c27.24,0,54.03,0,81.35,0c0,23.36,0,46.59,0,69.86c2.62,0,4.7,0,6.81,0c0-46.88,0-93.46,0-140.1
		c-2.32,0-4.41,0-7.01,0c0,21.27,0,42.33,0,63.58c-26.49,0-52.47,0-78.45-0.01C1224.74,381.7,1223.94,381.58,1222.57,381.47z"/>
	<path class="st1" d="M1209.87,794.42c-11.24,15.96-22.31,31.67-33.36,47.37c-24.61-15.87-47.98-8.35-57.83,7.59
		c-11.75,19.01-6.51,43.89,11.53,55.13c16.79,10.47,40.36,6.65,50.45-8.64c-5.2,0-10.07,0-15.29,0c0-13.24,0-25.95,0-38.88
		c23.59,0,46.88,0,70.44,0c0.21,0.89,0.61,1.8,0.61,2.72c0,17-0.34,34,0.08,50.99c0.16,6.47-1.82,11.66-5.49,16.56
		c-23.85,31.91-55.75,46.33-95.04,40.25c-37.8-5.86-64.08-27.92-76.68-64.24c-16.78-48.42,6.6-107.23,60.65-124.14
		c29.42-9.21,57.96-5.28,84.42,11.11C1206.19,791.35,1207.79,792.82,1209.87,794.42z M1204.02,880.02c0,8.51,0.2,16.33-0.12,24.12
		c-0.1,2.45-1.04,5.27-2.53,7.19c-17.27,22.34-48.49,30.51-74.73,19.77c-26.38-10.8-40.51-34.21-38.94-64.5
		c2.03-39,37.06-65.62,75.14-57.08c4,0.9,7.98,1.87,11.99,2.81c1.35-2.11,2.5-3.9,3.65-5.69c-10.46-5.86-32.01-7.44-46.16-3.72
		c-45.91,12.05-61.1,58.87-47.26,95.28c9.57,25.19,28.83,39.61,55.17,43.55c28.76,4.3,51.86-6.24,69.12-29.57
		c0.76-1.03,1.64-2.33,1.65-3.52c0.12-11.6,0.07-23.2,0.07-34.99c-10.01,0-19.41,0-28.86,0c0,2.22,0,4.11,0,6.34
		C1189.5,880.02,1196.44,880.02,1204.02,880.02z"/>
	<path class="st0" d="M1652.01,722.18c0-61.58,0-122.86,0-184.49c36.15,0,72.2,0,108.61,0c0,15.82,0,31.71,0,48.07
		c-16.21,0-32.6,0-49.32,0c0,7.01,0,13.56,0,20.55c16.1,0,32.17,0,48.49,0c0,15.52,0,30.61,0,46.12c-16.09,0-32.18,0-48.55,0
		c0,7.18,0,13.95,0,21.27c16.95,0,34.01,0,51.32,0c0,16.45,0,32.34,0,48.47C1725.78,722.18,1689.18,722.18,1652.01,722.18z
		 M1679.88,559.93c0,47,0,93.41,0,140.01c20.85,0,41.41,0,62.11,0c0-2.14,0-4.05,0-6.45c-18.45,0-36.67,0-54.92,0
		c0-20.42,0-40.35,0-60.71c17.48,0,34.73,0,52.08,0c0-2.37,0-4.3,0-6.66c-17.48,0-34.72,0-51.98,0c0-20.15,0-39.86,0-60.1
		c18.52,0,36.74,0,54.83,0c0-2.31,0-4.09,0-6.09C1721.23,559.93,1700.66,559.93,1679.88,559.93z"/>
	<path class="st0" d="M1467.22,296.12c0,16.19,0,31.96,0,48.13c-16.48,0-32.75,0-49.33,0c0,6.94,0,13.5,0,20.55
		c16.18,0,32.26,0,48.5,0c0,15.57,0,30.64,0,46.13c-16.33,0-32.41,0-48.65,0c0,7.17,0,13.93,0,21.03c17.11,0,34.05,0,51.34,0
		c0,16.38,0,32.41,0,48.64c-36.78,0-73.38,0-110.34,0c0-61.41,0-122.78,0-184.48C1394.8,296.12,1430.85,296.12,1467.22,296.12z
		 M1393.61,452.02c0-20.71,0-40.75,0-61.13c17.62,0,34.89,0,52.25,0c0-2.25,0-4.17,0-6.69c-17.6,0-34.96,0-52.29,0
		c0-20.18,0-39.75,0-59.81c18.56,0,36.8,0,54.97,0c0-2.42,0-4.32,0-6.19c-20.91,0-41.47,0-62.11,0c0,46.84,0,93.38,0,140.08
		c20.87,0,41.46,0,62.2,0c0-2.16,0-4.06,0-6.27C1430.27,452.02,1412.16,452.02,1393.61,452.02z"/>
	<path class="st1" d="M1521.35,894.33c-16.61,0-32.39,0-48.49,0c0,6.94,0,13.54,0,20.79c16.8,0,33.68,0,50.97,0
		c0,16.52,0,32.39,0,48.63c-36.63,0-73.33,0-110.3,0c0-61.54,0-122.91,0-184.5c36.22,0,72.13,0,108.43,0c0,16.04,0,31.93,0,48.42
		c-16.24,0-32.63,0-49.21,0c0,7,0,13.4,0,20.39c16.3,0,32.36,0,48.6,0C1521.35,863.7,1521.35,878.76,1521.35,894.33z
		 M1448.49,868.04c0-20.4,0-40.11,0-60.31c18.59,0,36.83,0,55.15,0c0-2.27,0-4.05,0-6.03c-20.9,0-41.59,0-62.1,0
		c0,46.95,0,93.46,0,139.79c21.01,0,41.57,0,62.04,0c0-2.18,0-3.95,0-6.26c-18.5,0-36.73,0-55.16,0c0-20.44,0-40.34,0-60.93
		c17.62,0,34.97,0,52.63,0c-0.14-2.47-0.25-4.21-0.36-6.26C1483.17,868.04,1466.05,868.04,1448.49,868.04z"/>
	<path class="st0" d="M1951.1,1145.18c11.31,19.92,22.68,39.95,34.33,60.46c-23.41,0-46.15,0-69.35,0
		c-8.75-14.75-17.69-29.81-26.62-44.87c-0.34,0.09-0.68,0.17-1.02,0.26c0,14.85,0,29.71,0,44.69c-19.87,0-39.16,0-58.83,0
		c0-61.45,0-122.82,0-184.22c0.23-0.15,0.5-0.47,0.76-0.47c26.3,0.27,52.68-0.6,78.88,1.21c22.34,1.54,41.63,11.25,55,30.34
		c17,24.27,17.58,69.19-12.43,91.54C1951.57,1144.31,1951.45,1144.66,1951.1,1145.18z M1908.76,1140.33
		c8.39,14.07,17.13,28.75,25.71,43.14c2.91,0,5.3,0,8.44,0c-9.33-15.73-18.33-30.9-27.46-46.28c2.04-0.9,3.56-1.54,5.05-2.24
		c11.9-5.61,21.22-13.75,25.31-26.69c8.21-25.95-3.89-50.64-29.32-60.25c-19.3-7.29-39.32-4.32-59.17-4.94c0,47.19,0,93.74,0,140.45
		c2.34,0,4.41,0,6.91,0c0-13.99,0-27.75,0-41.62C1879.03,1141.38,1893.43,1140.87,1908.76,1140.33z"/>
	<path class="st1" d="M1600.28,894.04c0,7.55,0,14.17,0,21.31c17.12,0,34.02,0,51.28,0c0,16.39,0,32.25,0,48.43
		c-36.69,0-73.27,0-110.27,0c0-61.31,0-122.66,0-184.4c35.98,0,72.01,0,108.4,0c0,15.94,0,31.84,0,48.35c-16.41,0-32.79,0-49.4,0
		c0,7.02,0,13.43,0,20.41c16.26,0,32.32,0,48.62,0c0,15.48,0,30.4,0,45.91C1632.72,894.04,1616.67,894.04,1600.28,894.04z
		 M1569.01,801.54c0,46.98,0,93.38,0,140.08c20.86,0,41.43,0,62,0c0-2.05,0-3.97,0-6.35c-18.36,0-36.45,0-54.7,0
		c0-20.48,0-40.49,0-60.91c17.51,0,34.61,0,51.85,0c0-2.31,0-4.2,0-6.63c-17.56,0-34.79,0-51.98,0c0-20.14,0-39.73,0-59.74
		c18.35,0,36.44,0,54.65,0c0-2.43,0-4.44,0-6.44C1610.04,801.54,1589.76,801.54,1569.01,801.54z"/>
	<path class="st0" d="M1450.61,1205.5c-8.79-14.82-17.75-29.93-27.32-46.07c0,16.02,0,30.88,0,46.1c-19.79,0-39.19,0-58.95,0
		c0-61.25,0-122.63,0-184.1c0.15-0.1,0.41-0.44,0.66-0.43c26.14,0.27,52.37-0.58,78.41,1.19c22.53,1.53,42.03,11.18,55.48,30.46
		c16.59,23.76,18.23,68.29-13.28,92.31c11.33,19.98,22.7,40.03,34.35,60.55C1496.71,1205.5,1473.88,1205.5,1450.61,1205.5z
		 M1477.63,1183.63c-9.43-15.88-18.44-31.06-27.55-46.39c1.83-0.86,3.17-1.52,4.53-2.11c26.2-11.45,32.24-34.92,26.02-56.86
		c-5.54-19.55-20.63-29.83-39.64-32.85c-14.84-2.36-30.17-1.69-45.28-2.33c-1.25-0.05-2.51,0.19-3.6,0.28c0,47,0,93.57,0,140.06
		c2.42,0,4.48,0,6.9,0c0-14.11,0-27.88,0-41.53c14.78-0.52,29.19-1.02,44.36-1.55c8.27,13.9,17.02,28.6,25.77,43.3
		C1471.81,1183.63,1474.28,1183.63,1477.63,1183.63z"/>
	<path class="st0" d="M1809.74,1089.87c0,15.55,0,30.62,0,45.96c-16.12,0-32.06,0-48.39,0c0,7.13,0,14,0,21.29
		c16.86,0,33.78,0,51.06,0c0,16.3,0,32.19,0,48.41c-36.67,0-73.38,0-110.34,0c0-61.43,0-122.81,0-184.42c36.22,0,72.28,0,108.57,0
		c0,16.11,0,32.01,0,48.22c-16.52,0-32.81,0-49.38,0c0,6.89,0,13.46,0,20.53C1777.39,1089.87,1793.45,1089.87,1809.74,1089.87z
		 M1736.95,1049.68c18.43,0,36.67,0,54.96,0c0-2.41,0-4.33,0-6.37c-20.83,0-41.39,0-61.96,0c0,46.94,0,93.62,0,140.23
		c20.87,0,41.31,0,61.99,0c0-2.16,0-4.09,0-6.48c-18.34,0-36.57,0-54.87,0c0-20.5,0-40.54,0-61.04c17.54,0,34.77,0,51.93,0
		c0-2.38,0-4.28,0-6.62c-17.55,0-34.78,0-52.06,0C1736.95,1089.36,1736.95,1069.76,1736.95,1049.68z"/>
	<path class="st0" d="M527.21,111.14c-115.99,0-231.98,0.01-347.97-0.03c-2.79,0-5.72-0.12-8.34-0.94
		c-4.78-1.49-7.64-5.98-7.45-10.68c0.2-4.91,3.67-9.29,8.62-10.4c2.25-0.5,4.63-0.55,6.95-0.55c231.65-0.02,463.3-0.02,694.94-0.01
		c2.49,0,5.03-0.03,7.47,0.38c5.77,0.96,9.61,5.58,9.53,11.1c-0.08,5.67-4.36,10.31-10.29,11c-1.81,0.21-3.66,0.13-5.49,0.13
		C759.19,111.14,643.2,111.14,527.21,111.14z"/>
	<path class="st1" d="M1252.04,778.11c28.49,0.95,56.53,0.66,84.3,3.21c21.06,1.94,38.8,12.37,50.96,30.65
		c16.02,24.09,16.51,67.21-12.21,89.78c-0.52,0.41-1.18,0.65-1.99,1.08c11.66,20.55,22.96,40.46,34.55,60.9
		c-23.42,0-46.28,0-69.47,0c-8.69-14.65-17.48-29.47-26.27-44.28c-0.3,0.08-0.59,0.17-0.89,0.25c0,14.52,0,29.05,0,43.98
		c-19.84,0-39.22,0-58.99,0C1252.04,902.35,1252.04,840.99,1252.04,778.11z M1279.72,801.22c0,47.25,0,93.79,0,140.28
		c2.44,0,4.5,0,7.19,0c0-14.07,0-27.77,0-41.17c15.06-0.61,29.47-1.2,44.16-1.8c8.47,14.23,17.13,28.79,25.61,43.02
		c2.92,0,5.3,0,8.37,0c-9.3-15.67-18.26-30.76-27.36-46.09c1.93-0.84,3.45-1.47,4.95-2.17c10.21-4.81,19.03-11.37,23.51-22.02
		c9.82-23.37,3.82-53.58-28.25-65.28C1319.02,799.11,1299.41,801.97,1279.72,801.22z"/>
	<path class="st0" d="M1424.75,586.05c-11.6,0-22.57,0-33.84,0c0-16.14,0-32.05,0-48.33c42.83,0,85.66,0,128.73,0
		c0,16.01,0,31.9,0,48.24c-11.24,0-22.31,0-33.71,0c0,45.51,0,90.58,0,136.07c-20.5,0-40.67,0-61.18,0
		C1424.75,676.83,1424.75,631.73,1424.75,586.05z M1451.74,566.27c0,44.79,0,89.18,0,133.62c2.6,0,4.67,0,7.24,0
		c0-44.64,0-89.01,0-133.83c13.41,0,26.32,0,39.05,0c0-2.35,0-4.24,0-6.13c-28.79,0-57.21,0-85.82,0c0,2.14,0,4.03,0,6.33
		C1425.39,566.27,1438.31,566.27,1451.74,566.27z"/>
	<path class="st0" d="M1525.95,1205.84c0-61.71,0-122.97,0-184.31c0.16-0.14,0.41-0.54,0.66-0.54c23.97,0.31,47.99-0.21,71.89,1.23
		c22.26,1.34,43.2,8.01,60.55,23c15.75,13.61,23.98,31.31,26.42,51.66c2.79,23.26,0.97,45.96-11.52,66.61
		c-13.41,22.17-34.35,33.4-58.83,38.31c-12.16,2.44-24.73,3.43-37.15,3.89C1560.86,1206.31,1543.7,1205.84,1525.95,1205.84z
		 M1553.73,1041.72c0,48.47,0,95.06,0,141.12c13.23,0,26.25,0.9,39.11-0.17c39.73-3.29,62.13-25.04,65.74-62.74
		c3.58-37.41-15.74-66.29-51.22-73.38C1590.05,1043.09,1572.02,1043.25,1553.73,1041.72z"/>
	<path class="st0" d="M1287.12,586.04c-11.57,0-22.51,0-33.78,0c0-16.16,0-32.06,0-48.34c42.76,0,85.6,0,128.67,0
		c0,16.06,0,31.96,0,48.29c-11.25,0-22.33,0-33.74,0c0,45.5,0,90.57,0,136.03c-20.52,0-40.7,0-61.15,0
		C1287.12,676.83,1287.12,631.74,1287.12,586.04z M1321.4,699.9c0-44.7,0-88.97,0-133.68c13.25,0,26.17,0,39.28,0
		c0-2.34,0-4.23,0-6.19c-28.84,0-57.41,0-85.99,0c0,2.21,0,4.07,0,6.36c13.3,0,26.23,0,39.48,0c0,44.7,0,88.98,0,133.52
		C1316.57,699.9,1318.64,699.9,1321.4,699.9z"/>
	<path class="st0" d="M1082.79,344.27c-11.63,0-22.72,0-34,0c0-16.24,0-32.03,0-48.15c42.98,0,85.85,0,128.96,0
		c0,15.87,0,31.63,0,47.9c-11.02,0-22.08,0-33.67,0c0,45.71,0,90.92,0,136.45c-20.6,0-40.67,0-61.28,0
		C1082.79,435.15,1082.79,389.93,1082.79,344.27z M1109.82,324.5c0,45.03,0,89.4,0,133.71c2.6,0,4.69,0,7.22,0
		c0-44.71,0-89.1,0-133.89c13.37,0,26.3,0,39.3,0c0-2.3,0-4.2,0-6.13c-28.86,0-57.44,0-86.02,0c0,2.18,0,4.08,0,6.31
		C1083.37,324.5,1096.15,324.5,1109.82,324.5z"/>
	<path class="st0" d="M1120.05,537.64c0,45.46,0,90.56,0,136.13c16.98,0,33.71,0,50.68,0c0,16.38,0,32.28,0,48.41
		c-37.36,0-74.61,0-112.16,0c0-61.54,0-122.89,0-184.54C1078.93,537.64,1099.16,537.64,1120.05,537.64z M1093.15,693.53
		c0-44.89,0-89.13,0-133.59c-2.43,0-4.5,0-6.82,0c0,46.73,0,93.26,0,139.91c23.1,0,45.98,0,68.72,0c0-2.21,0-4.11,0-6.32
		C1134.43,693.53,1114.16,693.53,1093.15,693.53z"/>
	<path class="st0" d="M1058.63,1021.05c20.37,0,40.5,0,61.11,0c0,45.15,0,90.33,0,136.03c17.18,0,33.89,0,50.93,0
		c0,16.39,0,32.28,0,48.49c-37.21,0-74.44,0-112.04,0C1058.63,1144.32,1058.63,1082.97,1058.63,1021.05z M1093.06,1177.02
		c0-45,0-89.37,0-133.64c-2.57,0-4.64,0-6.7,0c0,46.87,0,93.42,0,139.97c23.11,0,45.95,0,69.08,0c-0.11-2.33-0.2-4.22-0.3-6.33
		C1134.43,1177.02,1114.15,1177.02,1093.06,1177.02z"/>
	<path class="st0" d="M1591,673.67c17.14,0,33.75,0,50.74,0c0,16.21,0,32.1,0,48.38c-37.06,0-74.27,0-111.88,0
		c0-61.2,0-122.59,0-184.34c20.16,0,40.38,0,61.14,0C1591,582.94,1591,628.15,1591,673.67z M1557.48,559.93c0,46.77,0,93.3,0,139.88
		c23.15,0,46.02,0,68.99,0c0-2.1,0-3.87,0-6.3c-20.7,0-41.21,0-62.09,0c0-44.91,0-89.14,0-133.58
		C1561.88,559.93,1559.78,559.93,1557.48,559.93z"/>
	<path class="st0" d="M1245.22,1020.97c15.03,0,29.51,0,44.49,0c23.28,61.36,46.59,122.82,70.07,184.69c-19.79,0-38.87,0-58.23,0
		c-2.01-5.36-4.03-10.77-6.09-16.28c-18.62,0-37.07,0-55.96,0c-2.01,5.32-4.04,10.7-6.14,16.26c-19.21,0-38.32,0-58.22,0
		C1198.54,1144.02,1221.84,1082.6,1245.22,1020.97z M1326.24,1183.65c-18.02-47.32-35.8-94-53.45-140.35c-4,0-7.28,0-10.66,0
		c-17.8,46.75-35.53,93.34-53.35,140.15c2.89,0,5.28,0,7.65,0c1.83-4.73,3.56-9.18,5.22-13.48c30.77,0,61.06,0,91.6,0
		c1.83,4.62,3.64,9.2,5.42,13.68C1321.25,1183.65,1323.39,1183.65,1326.24,1183.65z"/>
	<path class="st0" d="M1180.99,537.54c20.75,0,41.18,0,61.95,0c0,61.51,0,122.86,0,184.55c-20.51,0-41.06,0-61.95,0
		C1180.99,660.8,1180.99,599.43,1180.99,537.54z M1208.51,559.94c0,47,0,93.41,0,139.95c2.48,0,4.74,0,6.87,0
		c0-46.8,0-93.34,0-139.95C1212.94,559.94,1210.83,559.94,1208.51,559.94z"/>
	<path class="st2" d="M521.88,1070.91c-18.49-1.39-36.3-2.22-53.98-4.15c-35.89-3.92-70.95-11.62-104.64-24.92
		c-28.59-11.28-55.02-26.19-77.6-47.31c-35.07-32.81-52.61-73.68-55.84-121.24c-2.64-38.81,5.51-75.86,17.65-112.28
		c20.77-62.33,49.87-120.88,81.6-178.17c45.09-81.4,95.27-159.56,151.04-234.07c11.97-15.99,24.98-31.2,37.54-46.74
		c1.02-1.26,2.22-2.38,3.89-4.17c0,125.42,0,250.06,0,375.33c-3.79-2.6-7.27-5.04-10.79-7.39c-34.4-22.99-72.64-35.84-113.12-42.77
		c-3.28-0.56-6.58-1.04-9.87-1.54c-7.09-1.09-12.2,2.14-13.05,8.23c-0.82,5.9,2.92,10.31,9.83,11.35
		c22.1,3.35,43.83,8.2,64.85,15.94c25.06,9.23,48.16,21.9,68.68,39.09c1.27,1.06,2.46,2.22,3.68,3.31c0,97.76,0,195.37,0,293.65
		c-0.84-0.66-1.39-0.93-1.7-1.36c-32.72-46.29-77.97-73.48-132.34-86.69c-26.71-6.49-53.87-8.79-81.31-8.22
		c-7.23,0.15-11.5,3.72-11.6,9.63c-0.11,6.15,4.3,10.27,11.6,10.19c23.57-0.27,46.96,1.35,70.04,6.28
		c45.58,9.75,85.2,30.09,116.11,65.73c11.2,12.92,20.48,27.12,27,42.97c1.41,3.43,2.09,7.34,2.22,11.07
		C522.09,1051.62,521.88,1060.59,521.88,1070.91z"/>
	<path class="st1" d="M541.92,909.42c0-2.89,0-4.32,0-5.76c0-96.98,0.01-193.96-0.07-290.95c0-3.61,0.87-6.05,3.82-8.49
		c29.94-24.74,64.55-39.51,102.01-48.19c10.36-2.4,20.91-3.98,31.36-5.98c6.06-1.16,9.64-5.8,8.79-11.28
		c-0.83-5.34-6.04-9.17-11.77-8.36c-36.01,5.14-70.74,14.58-102.99,31.8c-10.4,5.55-20.26,12.11-30.67,18.4
		c0-91.44,0-183.02,0-275.42c7.64,9.64,15.17,18.65,22.16,28.06c29.08,39.17,58.68,77.98,86.82,117.81
		c47.89,67.8,92.12,137.92,128.84,212.52c18.19,36.95,34.15,74.8,44.57,114.79c14.95,57.38,12.06,113.55-12.74,167.77
		c-15.65,34.2-41.12,59.84-73.26,79.03c-32.32,19.3-67.65,30.12-104.41,36.81c-28.39,5.17-57.06,7.58-85.89,8.12
		c-1.97,0.04-3.93,0-6.57,0c0-2.17,0-3.93,0-5.7c0-35.33,0.1-70.65-0.11-105.98c-0.03-5.72,1.27-10.77,3.76-15.77
		c16.53-33.21,41.39-58.55,73.24-77.14c29.68-17.32,61.99-26.57,96.07-29.61c13.58-1.21,27.25-1.42,40.88-1.95
		c7.22-0.28,11.95-4.02,12.01-9.89c0.05-5.87-4.68-9.91-11.85-10.04c-39.49-0.71-78.06,4.39-115.06,18.79
		C600.91,848.37,567.88,873.06,541.92,909.42z"/>
	<path class="st0" d="M1864.39,1134.89c0-28.6,0-56.52,0-85.16c17.29,0.5,34.62-2.01,51.2,4.82c17.6,7.25,26.06,20.82,25.3,40.52
		c-0.67,17.31-10.57,31.03-28.13,35.75c-10.44,2.8-21.61,2.99-32.48,3.99C1875.17,1135.27,1870,1134.89,1864.39,1134.89z
		 M1888.59,1111.93c10.31-0.43,20.36-0.71,25.79-10.62c3.89-7.11,3.89-15.13-1.09-21.76c-6.08-8.09-15.18-9.01-24.7-8.54
		C1888.59,1084.78,1888.59,1098.04,1888.59,1111.93z"/>
	<path class="st0" d="M1399.11,1134.1c0-27.79,0-55.85,0-84.39c15.9,0.49,31.71-1.51,47.13,3.35c28.07,8.84,39.07,42.4,21.04,64.85
		c-8.45,10.52-20.33,15.03-33.24,16.01C1422.65,1134.79,1411.14,1134.1,1399.11,1134.1z M1423.07,1111.84
		c9.99-0.1,19.53-0.64,25.31-9.44c4.6-7.01,4.57-15.3-0.03-22.23c-5.78-8.72-15.26-9.49-25.28-9.18c0,12.4,0,24.51,0,36.61
		C1423.07,1108.88,1423.07,1110.16,1423.07,1111.84z"/>
	<path class="st1" d="M1286.82,892.69c0-28.28,0-56.22,0-84.66c17.27,0.11,34.48-1.84,50.94,4.64
		c17.46,6.88,26.06,20.76,25.36,40.51c-0.64,17.77-10.6,30.73-28.32,36.27c-4.89,1.53-10.03,2.88-15.11,3.1
		C1308.92,893.02,1298.12,892.69,1286.82,892.69z M1311.04,869.9c9.88,0.28,18.86-0.74,24.91-9.09c4.44-6.13,4.28-17.49-0.37-23.18
		c-6.28-7.69-15.1-8.66-24.54-8.44C1311.04,842.9,1311.04,856.02,1311.04,869.9z"/>
	<path class="st0" d="M1560.87,1049.89c17.78-0.45,35.38-0.79,52.35,5.34c24.84,8.98,37.15,27.17,38.08,56.2
		c1,31.07-13.31,52.32-41.72,61.02c-7.26,2.22-14.94,3.48-22.52,4.09c-8.58,0.69-17.25,0.16-26.18,0.16
		C1560.87,1134.69,1560.87,1092.62,1560.87,1049.89z M1585.07,1152.96c29.31,0.11,43.81-14.57,43.15-42.4
		c-0.7-29.67-23.87-37.66-43.15-36.58C1585.07,1100.18,1585.07,1126.39,1585.07,1152.96z"/>
	<path class="st0" d="M1267.47,1049.66c14.62,38.31,28.81,75.5,43.17,113.15c-28.94,0-57.3,0-86.34,0
		C1238.6,1125.33,1252.82,1088.04,1267.47,1049.66z M1255.17,1148.1c8.42,0,16.3,0,24.63,0c-4.1-10.62-8.04-20.81-12.35-31.97
		C1263.12,1127.37,1259.22,1137.53,1255.17,1148.1z"/>
</g>
</svg>
